<?xml version="1.0" standalone="no"?>
<!DOCTYPE svg PUBLIC "-//W3C//DTD SVG 20010904//EN"
 "http://www.w3.org/TR/2001/REC-SVG-20010904/DTD/svg10.dtd">
<svg version="1.0" xmlns="http://www.w3.org/2000/svg"
 width="1000.000000pt" height="1080.000000pt" viewBox="0 0 1000.000000 1080.000000"
 preserveAspectRatio="xMidYMid meet">
<metadata>
Created by potrace 1.16, written by Peter Selinger 2001-2019
</metadata>
<g transform="translate(0.000000,1080.000000) scale(0.100000,-0.100000)"
fill="#000000" stroke="none">
<path d="M0 5400 l0 -5400 5000 0 5000 0 0 5400 0 5400 -5000 0 -5000 0 0
-5400z m5310 3240 c317 -12 479 -28 650 -66 337 -75 688 -239 937 -439 93 -74
260 -242 338 -340 250 -311 430 -717 510 -1150 61 -331 81 -865 46 -1260 -25
-285 -42 -409 -81 -570 -77 -325 -215 -627 -398 -870 -87 -116 -171 -206 -186
-198 -6 3 -8 2 -3 -2 9 -11 -21 -45 -40 -45 -8 0 -12 -4 -9 -9 3 -4 -5 -18
-19 -31 l-23 -22 -16 30 c-16 31 -41 44 -119 63 -26 6 -50 15 -53 20 -3 5 -15
9 -26 9 -12 0 -51 5 -87 11 -51 9 -61 14 -46 20 12 5 2 6 -28 3 -31 -4 -52 -2
-62 6 -9 8 -29 10 -50 7 -52 -9 -145 3 -145 19 0 7 8 15 18 17 9 2 4 3 -13 1
-136 -15 -165 -16 -165 -5 0 6 12 11 28 12 27 0 27 0 4 10 -13 5 -28 7 -32 4
-5 -3 -111 2 -237 11 -297 22 -403 25 -403 12 0 -6 -44 -9 -112 -9 -62 1 -133
-1 -156 -5 -26 -4 -48 -2 -54 4 -8 8 -18 5 -36 -8 -31 -25 -50 -25 -75 -3 -19
17 -20 17 -14 1 6 -16 -3 -17 -89 -13 -52 2 -92 0 -89 -4 2 -5 -6 -11 -20 -13
-17 -4 -25 -1 -25 8 0 17 -2 17 -34 1 -14 -8 -23 -17 -19 -20 3 -4 -1 -7 -9
-7 -9 0 -19 6 -22 13 -3 8 -8 7 -16 -5 -15 -24 -30 -23 -30 2 0 19 -4 20 -37
14 -21 -4 -40 -10 -43 -14 -5 -8 -25 -10 -170 -26 -36 -4 -68 -11 -71 -16 -4
-6 -15 -5 -27 3 -17 11 -28 11 -52 2 -17 -7 -32 -7 -36 -2 -3 5 -12 5 -23 -1
-10 -5 -21 -6 -25 -2 -4 3 -4 -1 0 -11 5 -13 1 -17 -15 -17 -12 0 -24 6 -27
14 -5 12 -11 13 -30 4 -18 -8 -34 -8 -63 0 -37 12 -53 10 -96 -9 -11 -4 -54
-10 -95 -12 -50 -2 -98 -12 -144 -30 -41 -16 -89 -27 -117 -27 -37 0 -49 -4
-49 -15 0 -10 -10 -15 -33 -15 -18 0 -53 -6 -78 -14 -24 -8 -61 -17 -82 -21
-21 -3 -41 -13 -44 -21 -3 -7 -18 -14 -33 -14 -34 0 -61 -26 -33 -33 14 -3 10
-8 -17 -20 -20 -8 -44 -25 -54 -36 -11 -12 -25 -21 -33 -21 -7 0 -13 -6 -13
-14 0 -8 -9 -18 -20 -21 -27 -9 -25 -23 5 -31 14 -3 23 -10 20 -15 -3 -4 -21
1 -40 12 -19 12 -33 25 -30 29 3 4 -3 7 -13 6 -9 0 -16 5 -14 12 1 8 -2 10 -8
7 -29 -18 -334 258 -465 420 -296 368 -472 818 -514 1315 -35 409 -35 748 0
1220 46 635 280 1155 700 1554 294 280 640 466 1059 571 246 62 446 80 995 93
50 1 219 -3 375 -8z m-3915 -8134 c25 -11 33 -19 29 -30 -7 -19 -5 -19 -40 -1
-36 18 -55 19 -78 2 -28 -21 -9 -45 49 -62 87 -25 108 -74 54 -127 -29 -29
-33 -30 -90 -25 -68 6 -72 8 -64 29 5 13 12 14 40 5 50 -15 100 1 100 33 0 16
-8 28 -25 36 -87 40 -105 51 -108 67 -14 70 53 106 133 73z m587 -48 l3 -62
36 32 c20 18 45 32 55 32 14 0 9 -9 -21 -40 l-39 -40 42 -60 c40 -57 41 -60
20 -60 -16 0 -32 14 -53 45 -16 25 -33 45 -37 45 -5 0 -8 -20 -8 -45 0 -38 -3
-45 -20 -45 -19 0 -20 7 -20 130 0 122 1 130 20 130 16 0 19 -8 22 -62z
m-1353 -24 c12 -15 21 -40 21 -55 0 -29 0 -29 -65 -29 -72 0 -83 -12 -44 -51
17 -17 30 -20 65 -16 43 4 59 -5 28 -17 -45 -17 -106 3 -123 41 -45 98 56 206
118 127z m456 3 c20 -16 28 -35 32 -69 5 -42 3 -50 -25 -78 -41 -41 -83 -41
-124 0 -28 28 -30 36 -25 78 9 82 84 119 142 69z m622 8 c30 -21 44 -75 32
-120 -25 -88 -143 -88 -168 0 -20 72 20 135 84 135 17 0 40 -7 52 -15z"/>
<path d="M986 424 c-50 -50 -21 -144 44 -144 48 0 80 50 66 104 -13 53 -75 75
-110 40z"/>
</g>
</svg>
